<svg xmlns="http://www.w3.org/2000/svg" width="64" height="64" viewBox="0 0 64 64" role="img" aria-label="ALMTS">
  <defs>
    <linearGradient id="g" x1="10" y1="6" x2="54" y2="58" gradientUnits="userSpaceOnUse">
      <stop stop-color="#6366f1"/>
      <stop offset="1" stop-color="#06b6d4"/>
    </linearGradient>
  </defs>
  <rect x="4" y="4" width="56" height="56" rx="16" fill="url(#g)"/>
  <path d="M18 46V22c0-1 .5-1.8 1.3-2.3C24 17 30 17 32 19c2-2 8-2 12.7.7.8.5 1.3 1.3 1.3 2.3v24c-4.5-2.5-10-2.5-14 0-4-2.5-9.5-2.5-14 0z"
        fill="none" stroke="#fff" stroke-width="3" stroke-linejoin="round"/>
  <path d="M32 19v27" fill="none" stroke="#fff" stroke-width="3" stroke-linecap="round"/>
  <path d="M32 16v16" fill="none" stroke="#fff" stroke-width="3" stroke-linecap="round"/>
  <path d="M24 24l8-8 8 8" fill="none" stroke="#fff" stroke-width="3" stroke-linecap="round" stroke-linejoin="round"/>
</svg>

